<?xml version="1.0" encoding="UTF-8"?>
<svg xmlns="http://www.w3.org/2000/svg" id="Layer_1" data-name="Layer 1" viewBox="0 0 512 512" width="512" height="512"><path d="M139,278.272H94.727A94.835,94.835,0,0,0,0,373v27.594a94.834,94.834,0,0,0,94.727,94.727H139a94.835,94.835,0,0,0,94.728-94.727V373A94.836,94.836,0,0,0,139,278.272Zm64.728,122.322A64.8,64.8,0,0,1,139,465.321H94.727A64.8,64.8,0,0,1,30,400.594V373a64.8,64.8,0,0,1,64.727-64.728H139A64.8,64.8,0,0,1,203.728,373ZM417.273,16.679H373a94.834,94.834,0,0,0-94.727,94.727V139A94.834,94.834,0,0,0,373,233.727h44.273A94.835,94.835,0,0,0,512,139V111.406A94.834,94.834,0,0,0,417.273,16.679ZM482,139a64.8,64.8,0,0,1-64.727,64.727H373A64.8,64.8,0,0,1,308.273,139V111.406A64.8,64.8,0,0,1,373,46.679h44.273A64.8,64.8,0,0,1,482,111.406ZM139,16.679H94.727A94.834,94.834,0,0,0,0,111.406V139a94.835,94.835,0,0,0,94.727,94.727H139A94.835,94.835,0,0,0,233.728,139V111.406A94.835,94.835,0,0,0,139,16.679ZM203.728,139A64.8,64.8,0,0,1,139,203.727H94.727A64.8,64.8,0,0,1,30,139V111.406A64.8,64.8,0,0,1,94.727,46.679H139a64.8,64.8,0,0,1,64.728,64.727ZM417.273,278.272H373A94.835,94.835,0,0,0,278.273,373v27.594A94.834,94.834,0,0,0,373,495.321h44.273A94.834,94.834,0,0,0,512,400.594V373A94.835,94.835,0,0,0,417.273,278.272ZM482,400.594a64.8,64.8,0,0,1-64.727,64.727H373a64.8,64.8,0,0,1-64.727-64.727V373A64.8,64.8,0,0,1,373,308.272h44.273A64.8,64.8,0,0,1,482,373Z"/></svg>
